<?xml version="1.0" standalone="no"?><!DOCTYPE svg PUBLIC "-//W3C//DTD SVG 1.1//EN" "http://www.w3.org/Graphics/SVG/1.1/DTD/svg11.dtd"><svg class="icon" width="200px" height="200.00px" viewBox="0 0 1024 1024" version="1.1" xmlns="http://www.w3.org/2000/svg"><path fill="#333333" d="M954.181818 227.281455c0-14.010182-9.402182-23.365818-23.412363-28.020364l-369.757091-102.679273c-14.056727-4.654545-32.768-4.654545-42.123637 0L149.085091 199.261091c-14.010182 4.654545-18.711273 13.963636-23.365818 28.020364 0 4.654545-18.757818 149.317818 18.711272 312.645818 23.365818 98.024727 60.834909 181.992727 117.015273 251.997091 65.536 84.014545 154.437818 144.709818 262.097455 181.992727 9.355636 4.701091 18.711273 4.701091 32.768 0 107.659636-37.282909 196.608-97.978182 262.097454-181.992727a696.32 696.32 0 0 0 117.015273-251.997091c37.469091-163.374545 18.711273-307.991273 18.711273-312.645818z m-84.247273 298.635636c-46.824727 196.002909-159.185455 326.702545-332.334545 382.696727-173.195636-60.695273-285.509818-186.647273-332.334545-382.696727-28.066909-121.344-23.412364-228.677818-18.711273-275.316364l351.045818-98.024727 351.045818 98.024727c4.654545 46.638545 9.309091 158.673455-18.757818 275.316364z"  /><path fill="#333333" d="M487.237818 643.490909L364.776727 545.978182c-14.708364-12.194909-14.708364-28.439273 0-40.634182a37.376 37.376 0 0 1 49.012364 0l97.978182 77.265455 200.843636-154.53091a37.376 37.376 0 0 1 49.012364 0c14.708364 12.241455 14.708364 28.485818 0 40.680728l-225.373091 174.778182a41.751273 41.751273 0 0 1-24.482909 8.145454 41.751273 41.751273 0 0 1-24.529455-8.145454z"  /></svg>