<?xml version="1.0" standalone="no"?><!DOCTYPE svg PUBLIC "-//W3C//DTD SVG 1.1//EN" "http://www.w3.org/Graphics/SVG/1.1/DTD/svg11.dtd"><svg t="1562554289396" class="icon" viewBox="0 0 1024 1024" version="1.1" xmlns="http://www.w3.org/2000/svg" p-id="10064" xmlns:xlink="http://www.w3.org/1999/xlink" width="200" height="200"><defs><style type="text/css"></style></defs><path d="M987.962 343.238c10.344-15.514 6.895-36.201-6.895-48.269-15.514-12.068-36.201-8.62-48.27 6.895-1.723 1.724-193.076 227.556-420.631 227.556-220.659 0-420.632-227.556-422.356-229.278-12.067-13.792-34.477-15.514-48.269-3.449-13.792 12.068-15.514 34.478-3.448 48.27 3.448 5.17 44.82 51.717 110.33 103.433l-87.92 91.367c-13.792 13.792-12.068 36.202 1.724 48.27 3.449 6.895 12.068 10.343 20.687 10.343s17.239-3.448 24.134-10.343l94.814-98.262c44.821 31.03 98.262 60.337 156.875 81.023l-36.201 122.397c-5.17 18.963 5.173 37.925 24.134 43.097h10.343c15.514 0 29.307-10.343 32.754-25.858l36.202-122.396c27.582 5.17 56.888 8.619 86.195 8.619 29.306 0 58.613-3.449 86.195-8.62l36.201 120.674c3.449 15.514 18.963 25.858 32.755 25.858 3.449 0 6.895 0 8.62-1.724 18.963-5.173 29.306-24.134 24.135-43.098L663.87 569.07c58.613-20.687 112.053-49.994 156.875-81.024l93.09 96.54c6.895 6.894 15.514 10.343 24.134 10.343s17.238-3.449 24.133-10.344c13.792-13.792 13.792-34.477 1.725-48.27l-87.92-91.366c70.682-51.717 112.056-101.71 112.056-101.71z" p-id="10065" fill="#ffffff"></path></svg>