<?xml version="1.0" standalone="no"?><!DOCTYPE svg PUBLIC "-//W3C//DTD SVG 1.1//EN" "http://www.w3.org/Graphics/SVG/1.1/DTD/svg11.dtd"><svg class="icon" width="200px" height="200.00px" viewBox="0 0 1024 1024" version="1.1" xmlns="http://www.w3.org/2000/svg"><path d="M512 512m-512 0a512 512 0 1 0 1024 0 512 512 0 1 0-1024 0Z" fill="#CCCCCC" /><path d="M724.864 256H299.136C275.328 256 256 271.36 256 290.24v443.52c0 18.88 19.328 34.24 43.136 34.24h425.728c23.808 0 43.136-15.36 43.136-34.176V290.24C768 271.36 748.672 256 724.864 256z m-322.56 475.456a36.608 36.608 0 1 1 0-73.216 36.608 36.608 0 0 1 0 73.216z m0-109.76a36.608 36.608 0 1 1 0-73.152 36.608 36.608 0 0 1 0 73.152z m0-109.696a36.608 36.608 0 1 1 0-73.216 36.608 36.608 0 0 1 0 73.216zM512 731.456A36.608 36.608 0 1 1 512 658.24 36.608 36.608 0 0 1 512 731.456z m0-109.76A36.608 36.608 0 1 1 512 548.48 36.608 36.608 0 0 1 512 621.696zM512 512A36.608 36.608 0 1 1 512 438.784 36.608 36.608 0 0 1 512 512z m182.848 185.792c0 18.56-16.384 33.664-36.544 33.664-20.16 0-36.608-15.104-36.608-33.664V582.208c0-18.56 16.448-33.664 36.608-33.664 20.16 0 36.544 15.104 36.544 33.664v115.584zM658.304 512a36.608 36.608 0 1 1 0-73.216 36.608 36.608 0 0 1 0 73.216z m36.544-124.032c0 7.936-8.96 14.336-19.968 14.336h-325.76c-11.072 0-19.968-6.4-19.968-14.336v-44.544c0-7.872 8.896-14.272 19.904-14.272h325.824c11.008 0 19.968 6.4 19.968 14.272v44.544z" fill="#FFFFFF" /></svg>