<?xml version="1.0" encoding="UTF-8"?>
<svg width="16px" height="17px" viewBox="0 0 16 17" version="1.1" xmlns="http://www.w3.org/2000/svg" xmlns:xlink="http://www.w3.org/1999/xlink">
    <!-- Generator: Sketch 53.2 (72643) - https://sketchapp.com -->
    <title>xuanzhong (1)@2x</title>
    <desc>Created with Sketch.</desc>
    <defs>
        <polygon id="path-1" points="5.0806798e-17 1.4901218e-08 16 1.4901218e-08 16 16 5.0806798e-17 16"></polygon>
    </defs>
    <g id="开户" stroke="none" stroke-width="1" fill="none" fill-rule="evenodd">
        <g id="16X16PX" transform="translate(-52.000000, -108.000000)">
            <g id="xuanzhong-(1)-2" transform="translate(52.000000, 108.000000)">
                <g id="xuanzhong-(1)">
                    <mask id="mask-2" fill="white">
                        <use xlink:href="#path-1"></use>
                    </mask>
                    <g id="Clip-2"></g>
                    <path d="M7.9999442,1.4901218e-08 C3.54282988,1.4901218e-08 0,3.54282989 0,7.99994421 C0,12.4570809 3.54282988,16 7.9999442,16 C12.4570808,16 16,12.4570809 16,7.99994421 C16,3.54282989 12.4570808,1.4901218e-08 7.9999442,1.4901218e-08 Z M12.2285544,5.82858563 L6.97141885,11.0857212 C6.74280309,11.3142476 6.39996875,11.3142476 6.17141996,11.0857212 L3.77144563,8.57141663 C3.54282988,8.34289016 3.54282988,7.99994421 3.77144563,7.77141774 C3.9999721,7.54289128 4.34282876,7.54289128 4.57144452,7.77141774 L6.6285845,9.82855773 L11.4285555,4.91427887 C11.657082,4.68575241 12.0000279,4.68575241 12.2285544,4.91427887 C12.4570808,5.14280534 12.4570808,5.59996988 12.2285544,5.82858563 Z" id="Fill-1" fill="#508CEE" mask="url(#mask-2)"></path>
                </g>
            </g>
        </g>
    </g>
</svg>