<?xml version="1.0" standalone="no"?><!DOCTYPE svg PUBLIC "-//W3C//DTD SVG 1.1//EN" "http://www.w3.org/Graphics/SVG/1.1/DTD/svg11.dtd"><svg class="icon" width="200px" height="200.00px" viewBox="0 0 1024 1024" version="1.1" xmlns="http://www.w3.org/2000/svg"><path d="M512 512m-512 0a512 512 0 1 0 1024 0 512 512 0 1 0-1024 0Z" fill="#CCCCCC" /><path d="M705.28 500.608a26.368 26.368 0 0 0 26.176-26.56 26.368 26.368 0 0 0-26.24-26.56H584.448l125.056-186.56a26.816 26.816 0 0 0-6.912-36.928 25.92 25.92 0 0 0-36.352 7.04L523.968 443.2 381.76 231.04a25.92 25.92 0 0 0-36.416-7.04 26.816 26.816 0 0 0-6.912 36.928l125.056 186.56H318.72a26.368 26.368 0 0 0-26.176 26.56c0 14.72 11.776 26.56 26.24 26.56h175.872V608H318.72a26.368 26.368 0 0 0-26.176 26.56c0 14.72 11.712 26.56 26.24 26.56h175.808v116.928c0 14.72 11.648 26.56 26.112 26.56 14.464 0 26.24-11.84 26.24-26.496v-116.992h158.272a26.368 26.368 0 0 0 26.24-26.56 26.368 26.368 0 0 0-26.24-26.56H546.944V500.608h158.336z" fill="#FFFFFF" /></svg>