<?xml version="1.0" standalone="no"?><!DOCTYPE svg PUBLIC "-//W3C//DTD SVG 1.1//EN" "http://www.w3.org/Graphics/SVG/1.1/DTD/svg11.dtd"><svg class="icon" width="200px" height="200.00px" viewBox="0 0 1024 1024" version="1.1" xmlns="http://www.w3.org/2000/svg"><path fill="#333333" d="M320 768l256-105.856L418.88 512z"  /><path fill="#333333" d="M910.912 240.704l-126.784-133.952L416.64 478.08 548.48 618.112zM1015.36 80.512S981.76 42.432 943.168 13.568c-38.656-28.928-68.352 0-68.352 0l-65.344 66.944 132.672 135.424s56-57.792 73.216-77.568c17.216-19.84 0-57.856 0-57.856z"  /><path fill="#333333" d="M844.16 1022.528H127.872C57.408 1022.528 0 963.84 0 891.52V157.888C0 85.632 57.408 26.88 127.872 26.88h347.712c14.08 0 25.6 11.712 25.6 26.24 0 14.4-11.52 26.112-25.6 26.112H127.872C85.632 79.232 51.2 114.56 51.2 157.888V891.52c0 43.328 34.432 78.592 76.8 78.592h716.16c42.368 0 76.8-35.2 76.8-78.592V535.424c0-14.464 11.392-26.24 25.6-26.24 14.08 0 25.6 11.776 25.6 26.24v356.096c0 72.256-57.408 131.008-128 131.008z"  /></svg>