<?xml version="1.0" standalone="no"?><!DOCTYPE svg PUBLIC "-//W3C//DTD SVG 1.1//EN" "http://www.w3.org/Graphics/SVG/1.1/DTD/svg11.dtd"><svg class="icon" width="200px" height="200.00px" viewBox="0 0 1024 1024" version="1.1" xmlns="http://www.w3.org/2000/svg"><path fill="#ffffff" d="M886.201809 577.282234a333.438333 333.438333 0 0 0 1.791991-33.279834c0-11.199944-0.639997-22.271889-1.791991-33.279834l87.487563-66.751666a46.719766 46.719766 0 0 0 11.647941-61.119694L892.153779 225.347993a50.239749 50.239749 0 0 0-61.183694-20.735896l-102.463488 40.255799a370.622147 370.622147 0 0 0-58.751706-33.407833L654.138969 104.580597A49.279754 49.279754 0 0 0 605.307213 64.0048H418.684147a48.895756 48.895756 0 0 0-48.959756 40.959795l-15.487922 106.495468a376.958115 376.958115 0 0 0-58.815706 33.407833l-102.719487-40.383798a51.327743 51.327743 0 0 0-60.799696 20.863895L38.654047 382.723206a46.911765 46.911765 0 0 0 11.96794 61.439693L137.725551 510.722566a332.606337 332.606337 0 0 0-1.791991 33.279834c0 11.199944 0.703996 22.335888 1.791991 33.279834L50.173989 644.0339a46.847766 46.847766 0 0 0-11.519942 61.055695l93.311533 157.631211c11.90394 19.9679 37.759811 29.567852 61.119695 20.607897l102.463487-40.191799c18.879906 12.991935 38.527807 24.191879 58.751706 33.279834l15.551923 107.071465c3.839981 23.487883 24.319878 40.511797 48.831756 40.511797h186.559067a49.535752 49.535752 0 0 0 48.959755-40.959795l15.487923-106.559467c20.287899-9.215954 39.9358-20.351898 58.751706-33.343834l102.783486 40.383798a50.559747 50.559747 0 0 0 60.799696-20.863895l93.183534-157.439213a47.039765 47.039765 0 0 0-11.96794-61.567692l-87.039565-66.367668z m-35.583822 259.326703l-116.159419-45.631772a26.623867 26.623867 0 0 0-25.919871 3.455983 321.278394 321.278394 0 0 1-72.831636 41.279793 25.599872 25.599872 0 0 0-15.87192 19.839901l-17.087915 117.95141-181.183094 2.559988-17.471912-120.511398a25.599872 25.599872 0 0 0-15.871921-19.839901 323.326383 323.326383 0 0 1-72.895636-41.279793 27.071865 27.071865 0 0 0-25.85587-3.391983l-111.99944 46.591767-94.335529-154.239229 98.559508-75.135624a24.959875 24.959875 0 0 0 9.663951-23.039885 298.430508 298.430508 0 0 1-3.071984-41.215794c0-13.95193 1.279994-27.647862 3.071984-41.087795a24.703876 24.703876 0 0 0-9.727951-23.039884L84.09382 407.875081l89.215553-156.543218 116.09542 45.567773a26.879866 26.879866 0 0 0 25.855871-3.391984c23.039885-17.151914 47.615762-31.103844 73.023635-41.407792a25.407873 25.407873 0 0 0 15.807921-19.839901L418.684147 114.564547l183.679081-2.559987 17.535912 120.447398c1.279994 8.831956 7.295964 16.383918 15.871921 19.839901 25.279874 10.239949 49.855751 24.06388 72.895636 41.279793 7.423963 5.503972 17.279914 6.847966 25.91987 3.455983l111.99944-46.591767 94.399528 154.239229-98.559507 75.135624a24.959875 24.959875 0 0 0-9.791951 23.039885c1.727991 13.567932 3.071985 27.263864 3.071984 41.215794 0 13.95193-1.279994 27.647862-3.071984 41.151794a24.959875 24.959875 0 0 0 9.791951 23.039885l97.407513 71.807641-89.215554 156.543217z m-338.558307-483.069585c-107.96746 0-195.711021 85.439573-195.711022 190.463048 0 104.959475 87.743561 190.463048 195.711022 190.463048 107.90346 0 195.647022-85.439573 195.647021-190.463048S619.96314 353.539352 512.05968 353.539352z m0 330.430348c-79.039605 0-143.359283-62.719686-143.359284-139.9673 0-77.183614 64.319678-139.9673 143.359284-139.9673 79.039605 0 143.359283 62.783686 143.359283 139.9673S590.971285 683.9697 511.99568 683.9697z"  /></svg>