<?xml version="1.0" standalone="no"?><!DOCTYPE svg PUBLIC "-//W3C//DTD SVG 1.1//EN" "http://www.w3.org/Graphics/SVG/1.1/DTD/svg11.dtd"><svg class="icon" width="200px" height="200.00px" viewBox="0 0 1024 1024" version="1.1" xmlns="http://www.w3.org/2000/svg"><path fill="#333333" d="M511.534545 1.024C229.003636 1.024 0 229.748364 0 511.860364c0 282.158545 229.003636 510.882909 511.534545 510.882909 282.437818 0 511.441455-228.724364 511.441455-510.882909 0-282.112-229.003636-510.836364-511.488-510.836364z m0 960.418909c-248.226909 0-450.141091-201.681455-450.14109-449.582545 0-247.854545 201.914182-449.536 450.094545-449.536s450.094545 201.681455 450.094545 449.536c0 247.901091-201.914182 449.629091-450.094545 449.629091z"  /><path fill="#333333" d="M702.370909 279.272727L512 469.643636 321.629091 279.272727 279.272727 321.582545l190.370909 190.37091L279.272727 702.464l42.356364 42.309818L512 554.356364 702.370909 744.727273l42.356364-42.356364L554.356364 512 744.727273 321.582545z"  /></svg>