<?xml version="1.0" standalone="no"?><!DOCTYPE svg PUBLIC "-//W3C//DTD SVG 1.1//EN" "http://www.w3.org/Graphics/SVG/1.1/DTD/svg11.dtd"><svg class="icon" width="200px" height="200.00px" viewBox="0 0 1024 1024" version="1.1" xmlns="http://www.w3.org/2000/svg"><path fill="#333333" d="M896 189.696h-96L768 129.216C749.12 94.016 739.328 83.2 704 83.2H320c-35.328 0-47.04 14.4-64 46.016l-32 60.48H128c-70.72 0-128 54.08-128 120.896v483.648C0 861.056 57.28 915.2 128 915.2h768c70.72 0 128-54.144 128-120.96V310.592c0-66.816-57.28-120.96-128-120.96z m64 611.84c0 33.344-28.672 60.416-64 60.416H128c-35.392 0-64-27.072-64-60.48V317.824c0-33.408 28.608-60.48 64-60.48h128l32-60.416c22.592-35.2 28.608-60.48 64-60.48h320c35.328 0 41.344 25.28 64 60.48l32 60.416h128c35.328 0 64 27.072 64 60.48v483.648zM512 294.208c-141.44 0-256 108.288-256 241.92 0 133.504 114.56 241.792 256 241.792s256-108.288 256-241.856c0-133.568-114.56-241.856-256-241.856z m0 423.232c-106.048 0-192-81.216-192-181.376 0-100.16 85.952-181.376 192-181.376s192 81.28 192 181.376c0 100.16-85.952 181.376-192 181.376z"  /></svg>