<?xml version="1.0" standalone="no"?><!DOCTYPE svg PUBLIC "-//W3C//DTD SVG 1.1//EN" "http://www.w3.org/Graphics/SVG/1.1/DTD/svg11.dtd"><svg class="icon" width="200px" height="200.00px" viewBox="0 0 1024 1024" version="1.1" xmlns="http://www.w3.org/2000/svg"><path d="M298.344508 900.758588H134.745449a36.141176 36.141176 0 0 1-35.719529-36.442353v-163.237647a34.816 34.816 0 0 0-34.454588-34.514823 32.105412 32.105412 0 0 0-17.227294 4.638117 34.032941 34.032941 0 0 0-17.227294 29.876706v163.84c0 27.888941 10.601412 54.452706 30.479058 73.667765 19.877647 19.877647 45.718588 30.539294 73.487059 30.539294h163.599059c11.926588 0 23.853176-6.625882 29.816471-17.227294a35.538824 35.538824 0 0 0 0-34.514824 34.514824 34.514824 0 0 0-29.153883-16.624941zM888.52992 7.107765h-163.599059a34.755765 34.755765 0 0 0-29.81647 17.227294 35.538824 35.538824 0 0 0 0 34.514823 33.972706 33.972706 0 0 0 29.81647 17.28753h163.599059c19.877647 0 35.779765 15.902118 35.779765 35.779764v163.84c0 12.047059 6.625882 23.913412 17.167059 29.936942 10.601412 5.963294 23.853176 5.963294 34.454588 0a34.032941 34.032941 0 0 0 17.227294-29.876706v-163.84a101.797647 101.797647 0 0 0-30.479059-73.667765 102.098824 102.098824 0 0 0-74.149647-31.201882zM47.344038 305.031529c10.601412 5.963294 23.853176 5.963294 34.454588 0a34.032941 34.032941 0 0 0 17.227294-29.876705v-163.237648c0-19.877647 15.902118-35.779765 35.719529-35.779764h163.599059a35.538824 35.538824 0 0 0 29.816471-17.28753 35.538824 35.538824 0 0 0 0-34.514823 33.972706 33.972706 0 0 0-29.816471-17.227294H134.745449c-27.828706 0-54.272 10.601412-73.487058 30.539294-19.877647 19.877647-30.479059 45.778824-30.479059 73.607529v163.84c0 12.649412 6.625882 23.913412 16.564706 29.936941z" fill="#2E77ED" /><path d="M94.448038 533.082353c5.601882 9.035294 16.022588 15.058824 26.503529 15.058823H963.161449c11.143529 0 20.901647-6.023529 26.50353-15.058823a29.153882 29.153882 0 0 0 0-30.117647 32.105412 32.105412 0 0 0-26.50353-15.058824H121.614155c-11.143529 0-20.901647 6.023529-26.503529 15.058824a27.708235 27.708235 0 0 0-0.602353 30.117647zM977.376979 673.069176a35.418353 35.418353 0 0 0-34.334118 0 33.792 33.792 0 0 0-17.227294 29.635765v162.876235a35.538824 35.538824 0 0 1-35.659294 35.659295h-163.237647a35.538824 35.538824 0 0 0-29.756235 17.106823 35.177412 35.177412 0 0 0 0 34.334118 33.912471 33.912471 0 0 0 29.756235 17.106823h163.237647c27.708235 0 54.211765-10.541176 73.306353-30.358588 19.877647-19.757176 30.418824-45.477647 30.418823-73.185882v-162.876236a34.936471 34.936471 0 0 0-16.50447-30.298353z" fill="#508CEE" /></svg>