<?xml version="1.0" standalone="no"?><!DOCTYPE svg PUBLIC "-//W3C//DTD SVG 1.1//EN" "http://www.w3.org/Graphics/SVG/1.1/DTD/svg11.dtd"><svg class="icon" width="200px" height="200.00px" viewBox="0 0 1024 1024" version="1.1" xmlns="http://www.w3.org/2000/svg"><path fill="#333333" d="M210.826134 632.473582h602.348335v60.234834h-602.348335z"  /><path fill="#333333" d="M747.5185 363.76599c0-14.57683-10.84227-26.262387-24.455342-26.262387L614.399518 331.660824c-13.613072-2.891272-27.16591 11.685558-27.16591 26.262387s10.84227 29.153659 24.455343 29.15366l51.621252 2.951506-138.540117 107.820352-130.468649-84.509471c-5.421135 0-8.131703-2.951507-13.552838-2.951507s-10.84227 2.951507-16.263405 5.842779L220.463707 547.542467a26.081683 26.081683 0 0 0-2.710567 37.947945c2.710568 5.782544 10.84227 8.734051 16.263405 8.734051 5.421135 0 10.84227-2.951507 16.323639-5.842779l133.118982-116.674872 130.408415 78.726927c2.710568 2.951507 8.131703 2.951507 13.613072 2.951507 5.421135 0 10.84227-2.951507 13.552838-5.842779l160.284892-122.457416 2.710567 58.307318c0 14.57683 10.84227 26.262387 24.455343 26.262388 13.613072 0 24.455342-11.685558 24.455342-29.213894L747.5185 363.826225z"  /></svg>