<?xml version="1.0" standalone="no"?><!DOCTYPE svg PUBLIC "-//W3C//DTD SVG 1.1//EN" "http://www.w3.org/Graphics/SVG/1.1/DTD/svg11.dtd"><svg class="icon" width="200px" height="200.00px" viewBox="0 0 1024 1024" version="1.1" xmlns="http://www.w3.org/2000/svg"><path d="M512 518.023529m-481.882353 0a481.882353 481.882353 0 1 0 963.764706 0 481.882353 481.882353 0 1 0-963.764706 0Z" fill="#508CEE" /><path d="M526.697412 596.751059V294.309647c0-9.517176-6.023529-17.227294-13.372236-17.227294-7.408941 0-13.372235 7.710118-13.372235 17.227294v309.549177c0 5.662118 2.168471 10.661647 5.421177 13.854117l1.204706 1.807059 151.250823 194.620235c5.240471 6.746353 13.673412 6.746353 18.913882 0a20.841412 20.841412 0 0 0 0-24.274823L526.697412 596.751059z" fill="#FFFFFF" /></svg>