<?xml version="1.0" standalone="no"?><!DOCTYPE svg PUBLIC "-//W3C//DTD SVG 1.1//EN" "http://www.w3.org/Graphics/SVG/1.1/DTD/svg11.dtd"><svg class="icon" width="200px" height="200.00px" viewBox="0 0 1024 1024" version="1.1" xmlns="http://www.w3.org/2000/svg"><path d="M512 505.976471m-481.882353 0a481.882353 481.882353 0 1 0 963.764706 0 481.882353 481.882353 0 1 0-963.764706 0Z" fill="#14B796" /><path d="M717.643294 391.408941l-259.011765 246.061177-152.274823-140.348236a20.961882 20.961882 0 0 0-29.274353 0 19.937882 19.937882 0 0 0 0 28.611765L444.355765 680.658824a20.961882 20.961882 0 0 0 31.623529-2.831059l270.938353-257.807059a19.937882 19.937882 0 0 0 0-28.672 20.961882 20.961882 0 0 0-29.274353 0z" fill="#FFFFFF" /></svg>