<?xml version="1.0" standalone="no"?><!DOCTYPE svg PUBLIC "-//W3C//DTD SVG 1.1//EN" "http://www.w3.org/Graphics/SVG/1.1/DTD/svg11.dtd">
<svg t="1562554145550" class="icon" viewBox="0 0 1024 1024" version="1.1" xmlns="http://www.w3.org/2000/svg" p-id="9891" xmlns:xlink="http://www.w3.org/1999/xlink" width="200" height="200"><defs><style type="text/css"></style></defs>
<path d="M512 812.8c-193 0-367.2-114.6-444.1-291.7l-3.9-9 3.9-9C144.8 325.8 319 211.2 512 211.2S879.2 325.8 956.1 503l3.9 9-3.9 9C879.2 698.2 705 812.8 512 812.8zM113.5 512c71.6 155.5 226.9 255.5 398.6 255.5S839 667.5 910.6 512C839 356.5 683.7 256.5 512 256.5S185 356.5 113.5 512z" p-id="9892" fill="#FFFFFF"></path>
<path d="M512 512z m-158.3 0c0 87.4 70.9 158.3 158.3 158.3S670.3 599.4 670.3 512 599.4 353.7 512 353.7 353.7 424.6 353.7 512" p-id="9893" fill="#FFFFFF"></path></svg>